<svg width="230" height="69" viewBox="0 0 230 69" fill="none" xmlns="http://www.w3.org/2000/svg">
    <path
        d="M16.6253 54H7.73202L7.78813 47.4353H16.6253C18.8322 47.4353 20.6931 46.9396 22.2081 45.9484C23.723 44.9384 24.8639 43.4703 25.6307 41.5439C26.4162 39.6175 26.809 37.2889 26.809 34.5583V32.5665C26.809 30.4717 26.5846 28.6295 26.1357 27.0397C25.7055 25.45 25.0603 24.1127 24.1999 23.028C23.3396 21.9432 22.2829 21.1296 21.0298 20.5872C19.7767 20.0262 18.3366 19.7456 16.7094 19.7456H7.56369V13.1528H16.7094C19.44 13.1528 21.9369 13.6204 24.1999 14.5556C26.4817 15.472 28.4548 16.7905 30.1194 18.5112C31.784 20.2319 33.0651 22.2892 33.9629 24.6832C34.8793 27.0585 35.3375 29.7049 35.3375 32.6226V34.5583C35.3375 37.4573 34.8793 40.1037 33.9629 42.4977C33.0651 44.8917 31.784 46.949 30.1194 48.6697C28.4736 50.3716 26.5004 51.6902 24.1999 52.6253C21.9182 53.5418 19.3933 54 16.6253 54ZM12.5013 13.1528V54H4.08495V13.1528H12.5013ZM54.9195 54.5611C52.5629 54.5611 50.4495 54.187 48.5792 53.4389C46.7089 52.6721 45.1191 51.6154 43.8099 50.2688C42.5194 48.9222 41.5282 47.3605 40.8362 45.5837C40.1442 43.7882 39.7982 41.8805 39.7982 39.8606V38.7384C39.7982 36.438 40.1255 34.3339 40.7801 32.4262C41.4347 30.5185 42.3698 28.8633 43.5855 27.4606C44.8199 26.0578 46.3161 24.9824 48.0742 24.2343C49.8323 23.4675 51.8148 23.0841 54.0217 23.0841C56.1726 23.0841 58.0803 23.4394 59.7448 24.1501C61.4094 24.8609 62.8028 25.8708 63.9249 27.18C65.0658 28.4892 65.9261 30.0603 66.5059 31.8932C67.0857 33.7073 67.3756 35.7273 67.3756 37.9529V41.3194H43.2489V35.933H59.4362V35.3158C59.4362 34.1936 59.2305 33.193 58.819 32.314C58.4263 31.4162 57.8278 30.7055 57.0236 30.1818C56.2193 29.6582 55.1907 29.3963 53.9376 29.3963C52.8715 29.3963 51.9551 29.6301 51.1882 30.0977C50.4214 30.5652 49.7949 31.2198 49.3086 32.0615C48.841 32.9031 48.4857 33.8944 48.2425 35.0352C48.0181 36.1574 47.9059 37.3918 47.9059 38.7384V39.8606C47.9059 41.0763 48.0742 42.1985 48.4109 43.2271C48.7662 44.2558 49.2618 45.1442 49.8977 45.8923C50.5523 46.6404 51.3379 47.2202 52.2543 47.6317C53.1895 48.0431 54.2462 48.2489 55.4245 48.2489C56.8833 48.2489 58.2392 47.9683 59.4923 47.4072C60.7641 46.8274 61.8583 45.9577 62.7747 44.7982L66.7023 49.0624C66.0664 49.9789 65.1967 50.8579 64.0933 51.6995C63.0085 52.5412 61.6993 53.2332 60.1656 53.7756C58.632 54.2992 56.8833 54.5611 54.9195 54.5611ZM81.9078 48.1086L88.6408 23.6452H97.0852L86.8453 54H81.7395L81.9078 48.1086ZM77.2788 23.6452L84.0399 48.1366L84.1802 54H79.0462L68.8064 23.6452H77.2788Z"
        fill="white" />
    <g filter="url(#filter0_d_6801_2)">
        <path
            d="M104.793 39.0826H94.3848V32.5179H104.793C106.401 32.5179 107.711 32.256 108.721 31.7324C109.731 31.19 110.469 30.4419 110.937 29.488C111.404 28.5342 111.638 27.4587 111.638 26.2618C111.638 25.0461 111.404 23.9145 110.937 22.8672C110.469 21.8198 109.731 20.9782 108.721 20.3423C107.711 19.7064 106.401 19.3884 104.793 19.3884H97.3025V53.6428H88.8862V12.7957H104.793C107.991 12.7957 110.731 13.3754 113.013 14.535C115.313 15.6759 117.071 17.2563 118.287 19.2762C119.503 21.2961 120.111 23.6059 120.111 26.2056C120.111 28.8428 119.503 31.1245 118.287 33.0509C117.071 34.9773 115.313 36.4642 113.013 37.5116C110.731 38.5589 107.991 39.0826 104.793 39.0826ZM133.941 23.288V53.6428H125.834V23.288H133.941ZM125.329 15.3767C125.329 14.1984 125.74 13.2258 126.563 12.459C127.386 11.6922 128.49 11.3088 129.874 11.3088C131.239 11.3088 132.333 11.6922 133.156 12.459C133.998 13.2258 134.418 14.1984 134.418 15.3767C134.418 16.5549 133.998 17.5275 133.156 18.2943C132.333 19.0611 131.239 19.4445 129.874 19.4445C128.49 19.4445 127.386 19.0611 126.563 18.2943C125.74 17.5275 125.329 16.5549 125.329 15.3767ZM164.773 47.3306V53.6428H141.713V47.3306H164.773ZM164.324 27.945L144.967 53.6428H139.552V48.8455L158.826 23.288H164.324V27.945ZM161.463 23.288V29.6283H140.001V23.288H161.463ZM194.006 47.3306V53.6428H170.945V47.3306H194.006ZM193.557 27.945L174.2 53.6428H168.785V48.8455L188.058 23.288H193.557V27.945ZM190.695 23.288V29.6283H169.234V23.288H190.695ZM215.468 46.7976V33.2753C215.468 32.3028 215.309 31.4705 214.991 30.7785C214.673 30.0678 214.177 29.5161 213.504 29.1233C212.849 28.7305 211.998 28.5342 210.951 28.5342C210.053 28.5342 209.277 28.6931 208.622 29.0111C207.968 29.3103 207.463 29.7498 207.107 30.3296C206.752 30.8907 206.574 31.5547 206.574 32.3215H198.495C198.495 31.031 198.794 29.806 199.392 28.6464C199.991 27.4868 200.861 26.4675 202.001 25.5884C203.142 24.6907 204.498 23.9893 206.069 23.4844C207.659 22.9794 209.436 22.7269 211.4 22.7269C213.756 22.7269 215.851 23.1197 217.684 23.9052C219.517 24.6907 220.957 25.869 222.004 27.44C223.07 29.0111 223.603 30.9749 223.603 33.3315V46.3206C223.603 47.9852 223.706 49.3505 223.912 50.4166C224.118 51.4639 224.417 52.3804 224.81 53.1659V53.6428H216.646C216.253 52.8199 215.954 51.7912 215.748 50.5568C215.561 49.3037 215.468 48.0507 215.468 46.7976ZM216.534 35.155L216.59 39.7279H212.073C211.007 39.7279 210.081 39.8494 209.296 40.0926C208.51 40.3357 207.865 40.6817 207.36 41.1306C206.855 41.5607 206.481 42.0657 206.238 42.6455C206.013 43.2253 205.901 43.8612 205.901 44.5532C205.901 45.2452 206.06 45.8718 206.378 46.4328C206.696 46.9752 207.154 47.4054 207.753 47.7233C208.351 48.0226 209.052 48.1722 209.857 48.1722C211.072 48.1722 212.129 47.9291 213.027 47.4428C213.925 46.9565 214.617 46.358 215.103 45.6473C215.608 44.9366 215.87 44.2633 215.888 43.6274L218.02 47.05C217.721 47.8169 217.31 48.6117 216.786 49.4347C216.281 50.2576 215.636 51.0338 214.85 51.7632C214.065 52.4739 213.12 53.063 212.017 53.5306C210.913 53.9795 209.604 54.2039 208.089 54.2039C206.163 54.2039 204.414 53.8205 202.843 53.0537C201.291 52.2682 200.056 51.1927 199.14 49.8274C198.242 48.4434 197.793 46.8724 197.793 45.1143C197.793 43.5245 198.092 42.1125 198.691 40.8781C199.289 39.6437 200.169 38.6057 201.328 37.764C202.506 36.9037 203.975 36.2585 205.733 35.8283C207.491 35.3794 209.529 35.155 211.848 35.155H216.534Z"
            fill="#FF3F4B" />
    </g>
    <defs>
        <filter id="filter0_d_6801_2" x="83.1005" y="4.88014" width="146.209" height="53.1809"
            filterUnits="userSpaceOnUse" color-interpolation-filters="sRGB">
            <feFlood flood-opacity="0" result="BackgroundImageFix" />
            <feColorMatrix in="SourceAlpha" type="matrix" values="0 0 0 0 0 0 0 0 0 0 0 0 0 0 0 0 0 0 127 0"
                result="hardAlpha" />
            <feOffset dx="-0.642857" dy="-1.28571" />
            <feGaussianBlur stdDeviation="2.57143" />
            <feComposite in2="hardAlpha" operator="out" />
            <feColorMatrix type="matrix" values="0 0 0 0 0 0 0 0 0 0 0 0 0 0 0 0 0 0 0.5 0" />
            <feBlend mode="normal" in2="BackgroundImageFix" result="effect1_dropShadow_6801_2" />
            <feBlend mode="normal" in="SourceGraphic" in2="effect1_dropShadow_6801_2" result="shape" />
        </filter>
    </defs>
</svg>